HIERARCHY
ROOT Hips
{
	OFFSET -3.958830 18.904000 13.208200
	CHANNELS 6 Xposition Yposition Zposition Zrotation Yrotation Xrotation 
	JOINT LHipJoint
	{
		OFFSET 0.000000 0.000000 0.000000
		CHANNELS 3 Zrotation Yrotation Xrotation
		JOINT LeftUpLeg
		{
			OFFSET 1.800000 -1.400000 0.085000
			CHANNELS 3 Zrotation Yrotation Xrotation
			JOINT LeftLeg
			{
				OFFSET 2.215000 -6.000000 0.000000
				CHANNELS 3 Zrotation Yrotation Xrotation
				JOINT LeftFoot
				{
					OFFSET 2.500000 -6.900000 0.000000
					CHANNELS 3 Zrotation Yrotation Xrotation
					JOINT LeftToeBase
					{
						OFFSET 0.200000 -0.500000 1.950000
						CHANNELS 3 Zrotation Yrotation Xrotation
						End Site
						{
							OFFSET 0.000000 0.000000 0.000000
						}
					}
				}
			}
		}
	}
	JOINT RHipJoint
	{
		OFFSET 0.000000 0.000000 0.000000
		CHANNELS 3 Zrotation Yrotation Xrotation
		JOINT RightUpLeg
		{
			OFFSET -1.800000 -1.400000 0.085000
			CHANNELS 3 Zrotation Yrotation Xrotation
			JOINT RightLeg
			{
				OFFSET -2.215000 -6.000000 0.000000
				CHANNELS 3 Zrotation Yrotation Xrotation
				JOINT RightFoot
				{
					OFFSET -2.500000 -6.900000 0.000000
					CHANNELS 3 Zrotation Yrotation Xrotation
					JOINT RightToeBase
					{
						OFFSET -0.200000 -0.500000 1.950000
						CHANNELS 3 Zrotation Yrotation Xrotation
						End Site
						{
							OFFSET 0.000000 0.000000 0.000000
						}
					}
				}
			}
		}
	}
	JOINT LowerBack
	{
		OFFSET 0.000000 0.000000 0.000000
		CHANNELS 3 Zrotation Yrotation Xrotation
		JOINT Spine
		{
			OFFSET -0.087000 1.940000 -0.288900
			CHANNELS 3 Zrotation Yrotation Xrotation
			JOINT Spine1
			{
				OFFSET 0.000000 1.950000 0.060000
				CHANNELS 3 Zrotation Yrotation Xrotation
				JOINT Neck
				{
					OFFSET 0.000000 0.000000 0.000000
					CHANNELS 3 Zrotation Yrotation Xrotation
					JOINT Neck1
					{
						OFFSET 0.000000 1.600000 0.340000
						CHANNELS 3 Zrotation Yrotation Xrotation
						JOINT Head
						{
							OFFSET 0.000000 1.667000 -0.240000
							CHANNELS 3 Zrotation Yrotation Xrotation
							End Site
							{
								OFFSET 0.000000 0.000000 0.000000
							}
						}
					}
				}
				JOINT LeftShoulder
				{
					OFFSET 0.000000 0.000000 0.000000
					CHANNELS 3 Zrotation Yrotation Xrotation
					JOINT LeftArm
					{
						OFFSET 2.700000 1.550000 -0.730000
						CHANNELS 3 Zrotation Yrotation Xrotation
						JOINT LeftForeArm
						{
							OFFSET 5.450000 0.000000 0.000000
							CHANNELS 3 Zrotation Yrotation Xrotation
							JOINT LeftHand
							{
								OFFSET 3.450000 0.000000 0.000000
								CHANNELS 3 Zrotation Yrotation Xrotation
								JOINT LeftHandIndex1
								{
									OFFSET 0.750000 0.000000 0.000000
									CHANNELS 3 Zrotation Yrotation Xrotation
									End Site
									{
										OFFSET 0.000000 0.000000 0.000000
									}
								}
							}
						}
					}
				}
				JOINT RightShoulder
				{
					OFFSET 0.000000 0.000000 0.000000
					CHANNELS 3 Zrotation Yrotation Xrotation
					JOINT RightArm
					{
						OFFSET -2.700000 1.550000 -0.730000
						CHANNELS 3 Zrotation Yrotation Xrotation
						JOINT RightForeArm
						{
							OFFSET -5.450000 0.000000 0.000000
							CHANNELS 3 Zrotation Yrotation Xrotation
							JOINT RightHand
							{
								OFFSET -3.450000 0.000000 0.000000
								CHANNELS 3 Zrotation Yrotation Xrotation
								JOINT RightHandIndex1
								{
									OFFSET -0.750000 0.000000 0.000000
									CHANNELS 3 Zrotation Yrotation Xrotation
									End Site
									{
										OFFSET 0.000000 0.000000 0.000000
									}
								}
							}
						}
					}
				}
			}
		}
	}
}
MOTION
Frames: 13
Frame Time: 0.016667
0.371340 17.617640 -4.206410 -3.811385 14.424625 0.387840 -15.307538 13.111349 2.620114 4.857537 -3.220093 -22.311344 0.019444 5.860210 28.897960 -0.716655 5.165573 2.890900 0.192850 -0.050320 -0.279800 18.204226 -9.833672 4.350296 -14.840211 7.970405 -39.792032 1.937827 -16.924217 73.127772 -2.220701 -12.126627 0.421250 -0.050620 0.797940 0.565150 -3.486947 -2.418647 -8.597966 5.360036 -2.721816 21.453772 -0.610891 -1.639323 2.580950 1.394412 -1.647744 -10.195971 -5.711312 -1.446662 42.049456 4.115750 -6.650490 -15.960460 -21.739028 -13.722726 5.066854 -53.614190 -6.063350 -8.504500 -27.373812 -41.892263 5.011877 -3.726834 2.916041 0.935170 0.226360 0.168810 0.498980 19.393429 16.694025 5.663649 53.509941 11.790915 -6.264117 1.204306 21.717426 -0.986458 1.925321 -1.018873 -0.326040 0.531750 0.262610 0.118750 
0.384680 17.583100 -4.249050 -5.261669 16.343005 -2.137657 -15.308702 13.077241 2.433107 5.827955 -3.151196 -21.977362 1.402353 5.772456 30.984363 -0.704009 5.397867 2.774939 0.278150 0.028050 -0.189870 18.264409 -9.379309 4.856255 -14.320987 9.188229 -44.449478 0.761444 -18.919467 81.222089 -2.678714 -13.417806 0.090118 -0.025160 0.701360 0.551380 -3.576306 -2.781207 -8.857506 6.648955 -4.059826 26.244541 -2.162830 -2.378037 2.190156 1.858227 -2.252610 -10.614278 -7.507162 -1.358966 44.938177 6.890430 -7.343080 -20.685840 -22.550339 -14.460023 4.942381 -52.348551 -6.643728 -9.663697 -30.840746 -49.239934 7.835060 -3.581474 2.942670 1.060900 0.105240 0.273370 0.493830 19.170022 17.514050 6.412684 53.341208 10.052409 -9.495512 -0.864577 27.859403 -1.720176 1.855232 -0.971615 -0.317710 0.559190 0.220890 0.093090 
0.415260 17.538300 -4.278980 -6.957959 17.466142 -4.711740 -15.284719 12.995365 2.247160 7.161633 -3.136623 -21.524821 2.472803 5.846312 33.368663 -0.736847 5.826940 2.619472 0.260870 -0.019430 -0.155950 18.349385 -9.010802 5.277015 -13.890960 10.231757 -48.589898 -0.118139 -20.987653 87.719770 -3.013458 -14.487630 -0.141406 -0.031640 0.686980 0.500030 -3.722287 -2.938657 -9.038023 8.600868 -5.531615 30.510607 -4.428714 -2.890001 2.244073 2.564020 -2.640547 -11.248763 -8.888158 -1.726091 46.908305 8.321560 -8.095770 -23.890570 -24.123210 -16.276182 5.083885 -49.466425 -6.850947 -10.638232 -36.282787 -56.706891 12.286874 -3.525104 2.893166 1.175960 0.050260 0.293790 0.454870 19.137089 19.209691 7.668974 53.068410 7.550873 -13.075795 -2.484487 34.521163 -2.566794 1.727135 -0.883330 -0.393570 0.649970 0.258740 0.040910 
0.449830 17.495300 -4.284850 -8.102703 19.282057 -6.977708 -15.278760 12.893074 2.131383 7.717914 -3.578544 -20.970815 3.682787 5.681293 35.746315 -0.820848 6.332326 2.468804 0.162350 -0.224570 -0.115690 18.410398 -8.737367 5.572005 -13.530326 10.406824 -52.479095 -1.440706 -22.588168 92.981236 -3.198794 -15.305760 -0.337241 -0.084970 0.734010 0.431390 -3.824954 -3.036184 -9.174247 9.506713 -7.153695 33.602731 -6.377196 -3.722161 2.848845 3.110448 -2.539948 -12.110575 -9.292089 -2.414262 48.579882 8.902410 -9.049630 -23.850450 -26.154068 -19.009579 5.686574 -45.384413 -6.521608 -11.562257 -42.935352 -63.951815 18.298965 -3.514357 2.841883 1.283570 0.042470 0.223820 0.364400 19.935747 21.357734 9.100791 52.235909 4.540885 -16.082913 -4.737042 39.240866 -3.569390 1.602076 -0.782271 -0.545900 0.753710 0.364330 -0.055380 
0.475850 17.479850 -4.279500 -9.633291 20.640303 -9.490250 -15.249261 12.818180 1.992122 9.186134 -3.809161 -19.954387 4.103296 5.715398 37.431073 -0.788020 6.652013 2.354447 0.164830 -0.222850 -0.091890 18.473435 -8.590363 5.761926 -12.160288 10.861548 -55.152143 -2.232941 -23.875317 96.620665 -3.386359 -15.900088 -0.456026 -0.078210 0.715920 0.391160 -3.973861 -2.965470 -9.238333 10.687538 -8.925761 36.470630 -8.386302 -4.402587 4.066263 3.627796 -2.425513 -13.013926 -9.577747 -2.891690 49.788550 10.220380 -9.496490 -24.766000 -27.573775 -21.599073 6.405225 -41.590555 -6.670351 -12.384185 -50.332868 -70.285133 25.647648 -3.360321 2.955962 1.320000 0.007890 0.234980 0.352940 20.176865 23.485233 10.477027 52.284717 1.697532 -19.340337 -7.637139 44.515963 -5.255708 1.513227 -0.771537 -0.574720 0.785560 0.356090 -0.070490 
0.477420 17.482650 -4.261250 -10.711491 20.912032 -11.385225 -15.226337 12.762539 1.874568 11.166084 -3.841520 -18.637323 3.091786 6.250243 37.713182 -0.766199 6.857242 2.245375 0.179600 -0.203700 -0.090560 18.519315 -8.467271 5.904595 -9.667978 12.034173 -57.224594 -2.526592 -24.086740 98.036985 -3.470164 -16.134690 -0.511732 -0.066900 0.685810 0.390440 -4.063251 -2.898590 -9.272359 10.849402 -9.941592 38.707412 -9.452550 -4.552747 5.517328 3.672164 -2.418551 -13.710360 -10.116273 -3.000916 50.319737 12.073050 -9.608660 -25.701120 -28.053825 -23.763498 6.928828 -38.867121 -8.138142 -12.545875 -56.899423 -75.822320 32.914123 -3.206143 3.176636 1.327040 -0.017920 0.245520 0.336660 20.556963 25.225427 11.492638 52.012248 -0.436039 -21.294345 -10.670962 47.119355 -6.728169 1.443143 -0.779997 -0.558930 0.768530 0.365760 -0.077890 
0.475130 17.507720 -4.233030 -11.582758 21.763943 -12.992700 -15.223907 12.755527 1.839945 12.692966 -4.132055 -17.503758 2.244294 6.537053 37.649058 -0.765143 6.994034 2.203852 0.148710 -0.211620 -0.114580 18.515854 -8.466732 5.904321 -7.007859 12.397888 -57.979551 -1.994806 -24.196330 97.053780 -3.470406 -16.087014 -0.490093 -0.069740 0.718710 0.381090 -4.082116 -2.823177 -9.278182 10.262036 -10.671801 40.498203 -10.036205 -4.643360 7.157813 3.734493 -1.370220 -14.433657 -8.471208 -4.657229 50.279150 13.216710 -9.893530 -26.594220 -28.815405 -26.145053 7.705781 -36.333665 -10.225676 -11.419532 -68.079251 -82.650894 44.996521 -3.146407 3.324102 1.335140 -0.002470 0.248470 0.329370 21.104002 26.732134 12.455504 51.948002 -2.699787 -23.084574 -13.814134 49.199395 -8.347686 1.361124 -0.742319 -0.579200 0.811440 0.388270 -0.071650 
0.478390 17.555260 -4.187910 -12.291966 22.284437 -14.011739 -15.185206 12.778100 1.792047 14.102311 -4.190345 -15.830227 1.108075 6.797264 36.327580 -0.788117 6.989232 2.218843 0.082490 -0.266920 -0.184040 18.533415 -8.574871 5.829617 -3.360664 12.920369 -57.503693 -1.079634 -23.348007 93.769266 -3.342043 -15.636810 -0.372958 -0.092980 0.779570 0.375890 -4.196274 -2.643448 -9.227508 9.898282 -11.607663 41.196370 -11.033165 -4.847260 8.521075 3.441031 -0.679509 -15.045422 -7.525108 -5.139710 50.097881 14.565740 -9.884020 -26.173400 -28.575349 -27.663498 8.345224 -35.131701 -12.578048 -8.287913 96.775556 -89.949915 -117.275323 -4.307666 1.166740 1.328540 0.035840 0.221080 0.322850 21.264124 27.638227 13.252102 52.746992 -4.334657 -24.176344 -15.792947 50.136819 -9.328785 1.294194 -0.703036 -0.608080 0.846300 0.439650 -0.062530 
0.468550 17.629070 -4.117500 -12.828621 22.869986 -15.086010 -15.169771 12.897192 1.783456 15.753069 -4.135998 -13.630714 -0.265229 7.090136 34.295815 -0.751294 6.889761 2.237590 0.121160 -0.216100 -0.183490 18.506427 -8.726220 5.650370 0.691079 12.985412 -55.399497 -0.307486 -21.713364 88.887688 -3.169272 -14.806894 -0.199821 -0.095230 0.757870 0.432060 -4.219994 -2.626841 -9.145021 8.811348 -11.976807 41.544048 -11.070732 -5.044685 9.487378 2.952883 -0.136713 -15.440791 -6.929443 -5.258732 50.789425 15.656260 -9.710890 -25.739560 -27.583474 -30.390220 7.669928 -35.441326 -12.372974 -15.868005 -106.736695 -84.669580 91.088262 -4.206922 -0.410627 1.308140 0.033420 0.255940 0.339050 21.176457 29.085335 14.641289 54.117294 -6.076257 -24.682695 -17.200130 48.858376 -9.742873 1.288546 -0.762843 -0.536600 0.784510 0.420670 -0.039830 
0.462050 17.711830 -4.039270 -12.541639 23.411551 -15.512624 -15.181813 13.031784 1.795567 16.481254 -3.953956 -11.296822 -1.474941 7.236334 31.781950 -0.746352 6.695622 2.287529 0.157170 -0.148880 -0.181050 18.449808 -8.882687 5.477795 3.625021 12.613991 -53.066290 0.672369 -20.029397 83.266857 -2.943995 -13.797859 0.020998 -0.075560 0.714700 0.471420 -4.150986 -2.640542 -9.071318 6.834755 -11.668436 41.631787 -11.146892 -5.168567 10.867915 2.997952 0.959733 -15.835458 -4.703642 -6.097007 50.266261 15.402910 -9.013220 -26.167380 -26.885550 -31.749450 8.822831 -34.624898 -13.126915 -15.107864 -162.989750 -85.174113 148.215954 -3.462799 2.428503 1.293110 0.032070 0.293970 0.347310 20.410035 28.926451 14.579981 55.382396 -6.023231 -24.071958 -18.293518 46.428416 -9.602405 1.302087 -0.809961 -0.483790 0.726860 0.399330 -0.032870 
0.450360 17.789970 -3.947280 -11.970244 24.424275 -15.391889 -15.229017 13.209152 1.876130 16.904110 -3.812093 -9.602527 -2.503570 7.371239 29.349825 -0.819978 6.632656 2.347611 0.091630 -0.238260 -0.175640 18.356342 -8.984449 5.283630 5.847841 11.960879 -50.462750 1.811128 -18.221919 76.483495 -2.586540 -12.507492 0.343998 -0.093000 0.763790 0.432560 -3.983128 -2.824862 -8.981922 4.671899 -10.893677 40.466861 -10.575433 -4.966106 13.351920 3.031353 1.783278 -16.932671 -2.968774 -6.622187 49.727880 14.111390 -8.848110 -25.020250 -24.877796 -32.548982 10.767494 -35.377914 -15.829060 -12.793217 140.259708 -82.762099 -158.297065 -3.310320 3.056955 1.302010 0.070830 0.244500 0.303690 18.365226 29.235668 14.487920 57.121657 -5.384348 -23.883910 -20.532473 43.944664 -9.982028 1.291052 -0.762784 -0.557290 0.796110 0.454500 -0.068530 
0.453910 17.851470 -3.822260 -10.393440 25.204636 -14.661436 -15.288018 13.436240 2.012652 16.405233 -3.549579 -7.608800 -3.576555 7.467171 26.814289 -0.823368 6.524586 2.428975 0.046200 -0.287090 -0.203920 18.238823 -9.148308 4.998368 7.153750 10.696304 -46.930270 3.140828 -16.148101 68.088239 -2.153878 -10.902857 0.780717 -0.106540 0.795070 0.417840 -3.764481 -3.054326 -8.842072 1.545632 -9.807187 38.496866 -10.423658 -4.923125 14.780787 3.117139 2.830631 -17.389812 -0.827734 -6.755264 48.974845 12.519350 -8.379010 -22.516290 -23.193032 -32.003368 11.569758 -36.737269 -17.357122 -9.834266 123.170203 -77.876732 -139.283141 -3.639228 2.769232 1.268680 0.117370 0.200940 0.300840 16.415784 28.384538 14.310375 59.153993 -4.705719 -23.234117 -20.030957 41.971015 -9.441243 1.313172 -0.788032 -0.584060 0.800030 0.474060 -0.078690 
0.477330 17.888980 -3.677770 -8.674046 26.119951 -13.565821 -15.345285 13.683907 2.178700 15.628890 -3.225642 -5.708912 -4.314289 7.394586 24.079124 -0.777141 6.378930 2.536776 -0.018970 -0.367360 -0.247400 18.116074 -9.376076 4.635434 7.864611 8.963656 -42.845213 4.813374 -14.180417 58.301944 -1.660933 -9.065499 1.315712 -0.159710 0.841950 0.434960 -3.551210 -3.283081 -8.662314 -1.161454 -9.116375 35.820605 -10.517041 -5.126787 15.395590 3.222724 3.661785 -17.457816 0.750927 -7.313570 47.567532 10.862130 -8.931910 -19.141100 -21.359899 -30.712965 11.777373 -39.187364 -18.461984 -7.699088 118.649028 -75.033499 -130.382542 -4.070919 2.233280 1.198810 0.179530 0.145320 0.295110 14.233983 26.731355 14.081393 61.654695 -4.299435 -22.773332 -18.801992 40.718397 -8.795620 1.366592 -0.840001 -0.575190 0.760790 0.494900 -0.063080 
